<?xml version="1.0" encoding="UTF-8" standalone="no"?>
<!-- Created with Inkscape (http://www.inkscape.org/) -->

<svg
   version="1.1"
   id="svg1"
   width="739"
   height="1600"
   viewBox="0 0 739 1600"
   sodipodi:docname="ativos.svg"
   inkscape:version="1.4.2 (f4327f4, 2025-05-13)"
   xmlns:inkscape="http://www.inkscape.org/namespaces/inkscape"
   xmlns:sodipodi="http://sodipodi.sourceforge.net/DTD/sodipodi-0.dtd"
   xmlns="http://www.w3.org/2000/svg"
   xmlns:svg="http://www.w3.org/2000/svg">
  <defs
     id="defs1" />
  <sodipodi:namedview
     id="namedview1"
     pagecolor="#ffffff"
     bordercolor="#000000"
     borderopacity="0.25"
     inkscape:showpageshadow="2"
     inkscape:pageopacity="0.0"
     inkscape:pagecheckerboard="0"
     inkscape:deskcolor="#d1d1d1"
     showgrid="false"
     inkscape:zoom="1.3664839"
     inkscape:cx="198.68511"
     inkscape:cy="715.33959"
     inkscape:window-width="1920"
     inkscape:window-height="991"
     inkscape:window-x="-9"
     inkscape:window-y="-9"
     inkscape:window-maximized="1"
     inkscape:current-layer="g1" />
  <g
     inkscape:groupmode="layer"
     inkscape:label="Image"
     id="g1"
     style="opacity:1" />
  <g
     inkscape:groupmode="layer"
     id="layer1"
     inkscape:label="logo">
    <ellipse
       style="fill:#000000;fill-opacity:1;stroke:#000000;stroke-width:6.91826;stroke-linecap:round;stroke-linejoin:round;stroke-dasharray:none"
       id="ellipse3"
       cx="368.46396"
       cy="716.9859"
       rx="239.90395"
       ry="243.74582" />
    <ellipse
       style="fill:#000000;fill-opacity:0;stroke:#000000;stroke-width:5.93008;stroke-linecap:round;stroke-linejoin:round;stroke-dasharray:none"
       id="path2"
       cx="368.82983"
       cy="718.26678"
       rx="205.63727"
       ry="208.93039" />
    <ellipse
       style="fill:#f5df27;fill-opacity:1;stroke:#000000;stroke-width:5.93008;stroke-linecap:round;stroke-linejoin:round;stroke-dasharray:none"
       id="ellipse2"
       cx="368.82983"
       cy="718.26678"
       rx="205.63727"
       ry="208.93039" />
    <path
       style="fill:#000000;fill-opacity:1;stroke:#000000;stroke-width:1.7726;stroke-linecap:round;stroke-linejoin:round;stroke-dasharray:none"
       d="m 274.06105,659.3565 c 24.25618,10.14658 47.02036,25.51512 69.33854,42.4447 13.03672,10.8348 14.87701,22.28031 1.09771,34.5778 -19.91968,14.34641 -39.73094,28.88798 -62.02049,38.96862 -103.16553,52.47461 -114.56132,-150.3632 -8.41576,-115.99112 z"
       id="path3"
       sodipodi:nodetypes="ccccc" />
    <path
       style="fill:#f4e029;fill-opacity:1;stroke:#000000;stroke-width:1.7726;stroke-linecap:round;stroke-linejoin:round;stroke-dasharray:none"
       d="m 300.31457,693.93429 26.98531,-0.0915 1.73804,49.12242 -26.98532,-0.27442 z"
       id="path11" />
    <path
       style="fill:#f3de21;fill-opacity:1;stroke:#000000;stroke-width:2.03668;stroke-linecap:round;stroke-linejoin:round;stroke-dasharray:none"
       d="m 273.69637,691.87091 26.48615,3.25822 -3.46842,62.43164 -22.59732,-2.94289 -0.84082,-8.19811 -15.76557,0.84084 -2.20718,-53.18252 18.49827,0.21021 z"
       id="path12" />
    <path
       style="fill:#f4de25;fill-opacity:1;stroke:#000000;stroke-width:1.86316;stroke-linecap:round;stroke-linejoin:round;stroke-dasharray:none"
       d="m 233.95837,695.11465 20.67201,-0.76919 0.96149,55.18948 -23.17188,3.1729 0.28845,-5.48048 -21.53736,-0.3846 0.28845,-48.45904 22.30654,2.11528 z"
       id="path13" />
    <path
       style="fill:#fffffa;fill-opacity:1;stroke:#000000;stroke-width:1.70457;stroke-linecap:round;stroke-linejoin:round;stroke-dasharray:none"
       d="m 421.99224,693.051 c 3.10479,0.12937 29.36611,-1.94049 29.36611,-1.94049 l 0.51746,7.37387 1.29366,-0.7762 0.25873,-6.98577 22.25097,-1.16429 1.03493,2.71668 6.20958,-1.03492 -0.51747,57.56791 -10.60802,-0.51746 -20.18111,4.39845 -1.5524,-5.82148 -26.77878,2.58732 z"
       id="path23" />
    <path
       style="fill:#fefff4;fill-opacity:1;stroke:#000000;stroke-width:1.70457;stroke-linecap:round;stroke-linejoin:round;stroke-dasharray:none"
       d="m 486.23899,693.95657 c 1.29366,0.64683 27.29625,0.3881 27.29625,0.3881 l 1.1643,4.65718 h 0.77619 l -0.64683,-8.0207 23.41527,-2.58732 1.03493,60.93144 -26.90815,2.84605 0.3881,-5.43338 -27.42562,2.45796 z"
       id="path24" />
    <path
       style="fill:#000003;fill-opacity:1;stroke:#000000;stroke-width:1.7726;stroke-linecap:round;stroke-linejoin:round;stroke-dasharray:none"
       d="m 305.34572,732.81143 v -28.5404 c 0.38995,-2.56046 1.86863,-4.32912 4.93968,-4.93969 h 7.50101 c 2.65203,0.73256 4.05248,2.71672 4.75673,5.39706 l 0.64033,27.35122 c -0.84662,2.41959 -1.47965,5.15957 -4.20788,4.75674 l -8.50724,0.27442 c -3.04475,0.0378 -4.51225,-1.65936 -5.12263,-4.29935 z"
       id="path9"
       sodipodi:nodetypes="ccccccccc" />
    <path
       style="fill:#f5e02d;fill-opacity:1;stroke:#000000;stroke-width:0.984248;stroke-linecap:round;stroke-linejoin:round;stroke-dasharray:none"
       d="m 310.53157,730.35483 v -20.7686 c -0.74886,-5.69779 7.78064,-6.84032 7.28624,0.33281 l 0.2713,19.90326 c 0.20691,5.15066 -7.49618,6.01952 -7.55754,0.53253 z"
       id="path10"
       sodipodi:nodetypes="ccccc" />
    <path
       style="fill:#000000;fill-opacity:1;stroke:#000000;stroke-width:1.7726;stroke-linecap:round;stroke-linejoin:round;stroke-dasharray:none"
       d="m 276.07351,700.79497 5.48854,37.13911 7.501,-0.0915 5.94592,-37.41354 -5.76296,-0.0915 -2.92723,28.81483 h -1.64656 l -3.84197,-28.72336 z"
       id="path8" />
    <path
       style="fill:#000000;fill-opacity:1;stroke:#000000;stroke-width:1.7726;stroke-linecap:round;stroke-linejoin:round;stroke-dasharray:none"
       d="m 267.20038,735.83014 -0.64033,-38.3283 h 4.84821 l 0.64033,38.23683 z"
       id="path7" />
    <path
       style="fill:#010101;fill-opacity:1;stroke:#000000;stroke-width:1.7726;stroke-linecap:round;stroke-linejoin:round;stroke-dasharray:none"
       d="m 215.88253,740.95278 5.67149,-37.13911 h 6.86068 l 6.58624,36.86468 h -5.94591 l -0.64033,-9.14756 h -6.31182 l -1.09771,9.42199 z"
       id="path4" />
    <path
       style="fill:#f4dc17;fill-opacity:1;stroke:#000000;stroke-width:2.00977;stroke-linecap:round;stroke-linejoin:round;stroke-dasharray:none"
       d="m 222.86179,727.02136 1.76314,-16.38692 1.97059,-0.20744 1.452,16.59436 z"
       id="path5" />
    <path
       style="fill:#000000;fill-opacity:1;stroke:#000000;stroke-width:1.7726;stroke-linecap:round;stroke-linejoin:round;stroke-dasharray:none"
       d="m 239.57472,708.93631 -4.93968,-0.18298 0.18295,-4.84821 16.64857,-0.27442 0.18295,5.21411 -6.58624,-0.18295 0.0915,32.47385 -5.39706,-0.27442 z"
       id="path6"
       sodipodi:nodetypes="ccccccccc" />
    <path
       style="fill:#fffbfd;fill-opacity:1;stroke:#000000;stroke-width:1.70457;stroke-linecap:round;stroke-linejoin:round;stroke-dasharray:none"
       d="m 343.85891,690.4231 23.41527,0.25873 1.68176,4.65718 1.16429,-7.11514 26.39069,3.36352 22.63907,-1.55239 1.29366,58.34411 -24.96766,0.90556 -0.3881,-36.86934 -3.75161,40.1035 -25.2264,-4.13972 -21.99223,0.51747 z"
       id="path22" />
    <path
       style="fill:#f5df27;fill-opacity:1;stroke:#000000;stroke-width:1.7726;stroke-linecap:round;stroke-linejoin:round;stroke-dasharray:none"
       d="m 347.7399,740.44721 v -41.91462 l 17.98189,0.12936 0.12936,6.08021 -11.90168,-0.3881 0.25873,13.32471 9.185,-0.12936 v 6.4683 h -8.92626 v 11.25485 l 10.99611,-0.12936 v 5.95084 z"
       id="path14" />
    <path
       style="fill:#f5df27;fill-opacity:1;stroke:#000000;stroke-width:1.7726;stroke-linecap:round;stroke-linejoin:round;stroke-dasharray:none"
       d="m 394.69599,696.80643 -7.50323,41.00906 -8.66753,-0.12937 -6.72704,-41.52652 7.11514,-0.25873 3.75161,31.17723 h 1.1643 l 4.13971,-30.65977 z"
       id="path15" />
    <path
       style="fill:#f5df29;fill-opacity:1;stroke:#000000;stroke-width:1.7726;stroke-linecap:round;stroke-linejoin:round;stroke-dasharray:none"
       d="m 398.40702,740.49159 0.12937,-43.20828 h 17.98188 v 6.46831 h -11.64295 l 0.12937,12.93661 9.05562,-0.25873 v 6.20957 l -8.66753,-0.12937 0.12937,11.64295 10.86675,-0.51746 0.25874,6.72704 z"
       id="path16" />
    <path
       style="fill:#f7e133;fill-opacity:1;stroke:#000000;stroke-width:1.7726;stroke-linecap:round;stroke-linejoin:round;stroke-dasharray:none"
       d="m 427.34064,740.05529 0.25873,-43.20828 h 7.76196 l 7.76197,24.8383 -0.25873,-24.8383 6.33894,0.12937 0.51746,43.46701 h -7.76196 l -7.50324,-28.84864 -0.12936,29.23674 z"
       id="path17" />
    <path
       style="fill:#ebdb1f;fill-opacity:1;stroke:#000000;stroke-width:1.7726;stroke-linecap:round;stroke-linejoin:round;stroke-dasharray:none"
       d="m 457.26099,702.41356 -0.12937,-5.82147 19.92238,-0.25874 v 5.82148 l -6.72704,0.12936 0.51747,36.09315 -7.6326,-0.12937 -0.64683,-35.96378 z"
       id="path18" />
    <path
       style="fill:#f5e02d;fill-opacity:1;stroke:#000000;stroke-width:1.7726;stroke-linecap:round;stroke-linejoin:round;stroke-dasharray:none"
       d="m 490.29754,736.90231 -0.51746,-29.62484 c -0.0395,-10.21175 18.98492,-11.2508 20.18111,0 l 0.12937,28.97801 c -1.68497,9.84117 -18.88337,7.8544 -19.79302,0.64683 z"
       id="path19"
       sodipodi:nodetypes="ccccc" />
    <path
       style="fill:#fafeff;fill-opacity:1;stroke:#000000;stroke-width:1.70457;stroke-linecap:round;stroke-linejoin:round;stroke-dasharray:none"
       d="m 494.84944,732.90813 -0.21881,-19.99185 c -1.8996,-7.94766 9.63783,-9.27623 8.533,0 l 0.4427,19.55535 c 1.84559,5.83386 -8.74475,7.73375 -8.75702,0.43641 z"
       id="path20"
       sodipodi:nodetypes="cccccc" />
    <path
       style="fill:#f0da13;fill-opacity:1;stroke:#000000;stroke-width:1.70457;stroke-linecap:round;stroke-linejoin:round;stroke-dasharray:none"
       d="m 528.63049,709.73542 c 0.22721,-4.66898 -3.79437,-8.12123 -7.50323,-3.88098 -1.98517,9.49064 5.27219,4.70408 12.16041,18.75809 3.84972,12.95278 -1.58255,16.61402 -4.65718,16.94696 -2.49921,0.26247 -5.17652,0.16873 -8.0207,-0.25874 -6.25926,0.63213 -5.30082,-7.53712 -5.43337,-11.51358 2.13448,-2.34984 3.58282,-1.269 5.04528,-0.25873 -1.13252,8.9637 7.13208,8.69814 8.27943,3.10479 0.75041,-2.28117 -0.2587,-4.26909 -1.5524,-6.20958 -3.11598,-3.64374 -6.59353,-7.8893 -11.12548,-11.12548 -1.96436,-3.10479 -1.71139,-8.66753 0.51746,-12.41915 4.18284,-5.72515 10.43553,-4.91281 14.87711,-2.19922 2.76862,2.19922 3.14052,5.43338 2.71668,8.53816 -2.21174,2.39116 -3.76753,1.50259 -5.30401,0.51746 z"
       id="path21"
       sodipodi:nodetypes="cccccccccccccc" />
  </g>
</svg>
